<svg xmlns="http://www.w3.org/2000/svg" xmlns:xlink="http://www.w3.org/1999/xlink" version="1.1" id="bold" x="0px" y="0px" viewBox="0 0 512 512" style="enable-background:new 0 0 512 512;" xml:space="preserve">
<style xmlns="http://www.w3.org/2000/svg" type="text/css">
	.st0{fill:#0E538C;}
	.st1{opacity:0.5;fill:#008A6A;}
	.st2{opacity:0.5;}
	.st3{fill:#008A6A;}
	.st4{opacity:0.2;}
	.st5{fill:#FFFFFF;}
	.st6{fill:#2995F5;}
	.st7{fill:#FFBE55;}
	.st8{fill:#EAE1C9;}
	.st9{fill:#0E538D;}
	.st10{fill:#2B94F4;}
	.st11{fill:#D3D3D3;}
	.st12{fill:#F7F7F7;}
	.st13{fill:#CCE9FF;}
	.st14{fill:#1A84D3;}
	.st15{fill:#E59D35;}
	.st16{fill:#F5DAC1;}
	.st17{fill:#EABFA0;}
	.st18{fill:#151A22;}
	.st19{fill:#FD9F11;}
	.st20{fill:#D5D8D7;}
</style>
<g xmlns="http://www.w3.org/2000/svg">
	<path id="XMLID_753_" class="st0" d="M426.5,382.5l-4.1-77.3L70.9,332.5l3,66L426.5,382.5z M402.4,318.9c0-9.7,15-9.6,15,0   C417.4,328.5,402.4,328.5,402.4,318.9z"/>
	<g id="XMLID_730_">
		<path id="XMLID_752_" class="st1" d="M70.7,365.8l0-0.5c-0.1-1.3,0.9-2.4,2.2-2.5l340.4-15.4c1.3-0.1,2.4,0.9,2.5,2.2l0,0.5    c0.1,1.3-0.9,2.4-2.2,2.5L73.1,368C71.8,368.1,70.7,367.1,70.7,365.8z"/>
		
			<rect id="XMLID_750_" x="396" y="370.6" transform="matrix(4.529975e-02 0.999 -0.999 4.529975e-02 760.5721 -51.165)" class="st1" width="22" height="3.6"/>
		
			<rect id="XMLID_749_" x="393.2" y="375.1" transform="matrix(4.529919e-02 0.999 -0.999 4.529919e-02 758.3656 -39.8039)" class="st1" width="13.6" height="3.5"/>
		
			<rect id="XMLID_748_" x="381.1" y="371.2" transform="matrix(4.530017e-02 0.999 -0.999 4.530017e-02 746.9474 -35.5501)" class="st1" width="22" height="3.5"/>
		
			<rect id="XMLID_747_" x="378.2" y="375.8" transform="matrix(4.529852e-02 0.999 -0.999 4.529852e-02 744.7414 -24.1886)" class="st1" width="13.6" height="3.5"/>
		
			<rect id="XMLID_746_" x="366.1" y="371.9" transform="matrix(4.530892e-02 0.999 -0.999 4.530892e-02 733.3195 -19.9382)" class="st1" width="22" height="3.6"/>
		
			<rect id="XMLID_745_" x="363.2" y="376.4" transform="matrix(4.529919e-02 0.999 -0.999 4.529919e-02 731.1167 -8.5737)" class="st1" width="13.6" height="3.5"/>
		
			<rect id="XMLID_744_" x="351.1" y="372.6" transform="matrix(4.530017e-02 0.999 -0.999 4.530017e-02 719.6983 -4.32)" class="st1" width="22" height="3.5"/>
		
			<rect id="XMLID_743_" x="348.3" y="377.1" transform="matrix(4.529852e-02 0.999 -0.999 4.529852e-02 717.4924 7.0417)" class="st1" width="13.6" height="3.5"/>
		
			<rect id="XMLID_742_" x="336.1" y="373.3" transform="matrix(4.530931e-02 0.999 -0.999 4.530931e-02 706.0707 11.2918)" class="st1" width="22" height="3.5"/>
		
			<rect id="XMLID_741_" x="333.3" y="377.8" transform="matrix(4.529987e-02 0.999 -0.999 4.529987e-02 703.8674 22.6561)" class="st1" width="13.6" height="3.6"/>
		
			<rect id="XMLID_740_" x="321.1" y="374" transform="matrix(4.529975e-02 0.999 -0.999 4.529975e-02 692.4496 26.9104)" class="st1" width="22" height="3.6"/>
		
			<rect id="XMLID_739_" x="318.3" y="378.5" transform="matrix(4.529924e-02 0.999 -0.999 4.529924e-02 690.2431 38.2715)" class="st1" width="13.6" height="3.5"/>
		
			<rect id="XMLID_738_" x="306.2" y="374.6" transform="matrix(4.530933e-02 0.999 -0.999 4.530933e-02 678.822 42.5219)" class="st1" width="22" height="3.6"/>
		
			<rect id="XMLID_737_" x="303.3" y="379.2" transform="matrix(4.529847e-02 0.999 -0.999 4.529847e-02 676.619 53.8869)" class="st1" width="13.6" height="3.6"/>
		
			<rect id="XMLID_736_" x="291.2" y="375.3" transform="matrix(4.530933e-02 0.999 -0.999 4.530933e-02 665.1976 58.137)" class="st1" width="22" height="3.5"/>
		
			<rect id="XMLID_735_" x="288.3" y="379.8" transform="matrix(4.529919e-02 0.999 -0.999 4.529919e-02 662.9942 69.5018)" class="st1" width="13.6" height="3.5"/>
		
			<rect id="XMLID_734_" x="276.2" y="376" transform="matrix(4.530933e-02 0.999 -0.999 4.530933e-02 651.5732 73.752)" class="st1" width="22" height="3.6"/>
		
			<rect id="XMLID_733_" x="273.3" y="380.5" transform="matrix(4.529919e-02 0.999 -0.999 4.529919e-02 649.3696 85.1167)" class="st1" width="13.6" height="3.6"/>
		
			<rect id="XMLID_731_" x="261.2" y="376.7" transform="matrix(4.530936e-02 0.999 -0.999 4.530936e-02 637.949 89.3671)" class="st1" width="22" height="3.6"/>
	</g>
	<g id="XMLID_707_" class="st2">
		
			<rect id="XMLID_729_" x="258.4" y="381.2" transform="matrix(4.529987e-02 0.999 -0.999 4.529987e-02 635.7449 100.7317)" class="st3" width="13.6" height="3.5"/>
		
			<rect id="XMLID_728_" x="246.2" y="377.4" transform="matrix(4.530892e-02 0.999 -0.999 4.530892e-02 624.3247 104.9823)" class="st3" width="22" height="3.6"/>
		
			<rect id="XMLID_727_" x="243.4" y="381.9" transform="matrix(4.528370e-02 0.999 -0.999 4.528370e-02 622.1248 116.3526)" class="st3" width="13.6" height="3.5"/>
		
			<rect id="XMLID_726_" x="231.2" y="378" transform="matrix(4.530017e-02 0.999 -0.999 4.530017e-02 610.7026 120.6005)" class="st3" width="22" height="3.5"/>
		
			<rect id="XMLID_725_" x="228.4" y="382.6" transform="matrix(4.529857e-02 0.999 -0.999 4.529857e-02 608.4963 131.9623)" class="st3" width="13.6" height="3.6"/>
		
			<rect id="XMLID_724_" x="216.3" y="378.7" transform="matrix(4.529975e-02 0.999 -0.999 4.529975e-02 597.0782 136.2158)" class="st3" width="22" height="3.5"/>
		
			<rect id="XMLID_723_" x="213.4" y="383.2" transform="matrix(4.528505e-02 0.999 -0.999 4.528505e-02 594.8751 147.5823)" class="st3" width="13.6" height="3.6"/>
		
			<rect id="XMLID_722_" x="201.3" y="379.4" transform="matrix(4.530017e-02 0.999 -0.999 4.530017e-02 583.4537 151.8307)" class="st3" width="22" height="3.5"/>
		
			<rect id="XMLID_720_" x="198.4" y="383.9" transform="matrix(4.529919e-02 0.999 -0.999 4.529919e-02 581.2472 163.1922)" class="st3" width="13.6" height="3.6"/>
		
			<rect id="XMLID_719_" x="186.3" y="380.1" transform="matrix(4.530017e-02 0.999 -0.999 4.530017e-02 569.8292 167.4458)" class="st3" width="22" height="3.6"/>
		
			<rect id="XMLID_718_" x="183.5" y="384.6" transform="matrix(4.529919e-02 0.999 -0.999 4.529919e-02 567.6228 178.8071)" class="st3" width="13.6" height="3.5"/>
		
			<rect id="XMLID_717_" x="171.3" y="380.8" transform="matrix(4.529934e-02 0.999 -0.999 4.529934e-02 556.2048 183.0612)" class="st3" width="22" height="3.5"/>
		
			<rect id="XMLID_715_" x="168.5" y="385.3" transform="matrix(4.529852e-02 0.999 -0.999 4.529852e-02 553.9983 194.4225)" class="st3" width="13.6" height="3.6"/>
		
			<rect id="XMLID_714_" x="156.3" y="381.4" transform="matrix(4.530014e-02 0.999 -0.999 4.530014e-02 542.5803 198.6759)" class="st3" width="22" height="3.6"/>
		
			<rect id="XMLID_713_" x="153.5" y="386" transform="matrix(4.529919e-02 0.999 -0.999 4.529919e-02 540.3739 210.0373)" class="st3" width="13.6" height="3.6"/>
		
			<rect id="XMLID_712_" x="141.4" y="382.1" transform="matrix(4.530017e-02 0.999 -0.999 4.530017e-02 528.9557 214.2911)" class="st3" width="22" height="3.5"/>
		
			<rect id="XMLID_711_" x="138.5" y="386.6" transform="matrix(4.528505e-02 0.999 -0.999 4.528505e-02 526.7516 225.6578)" class="st3" width="13.6" height="3.6"/>
		
			<rect id="XMLID_710_" x="126.1" y="382.8" transform="matrix(4.529059e-02 0.999 -0.999 4.529059e-02 515.0914 230.1863)" class="st3" width="22" height="3.5"/>
		
			<rect id="XMLID_709_" x="123.3" y="387.3" transform="matrix(4.529987e-02 0.999 -0.999 4.529987e-02 512.8834 241.5439)" class="st3" width="13.6" height="3.5"/>
		
			<rect id="XMLID_867_" x="110.9" y="383.5" transform="matrix(4.529975e-02 0.999 -0.999 4.529975e-02 501.2243 246.0744)" class="st3" width="22" height="3.6"/>
		
			<rect id="XMLID_708_" x="108" y="388" transform="matrix(4.529919e-02 0.999 -0.999 4.529919e-02 499.0176 257.4358)" class="st3" width="13.6" height="3.6"/>
		
			<rect id="XMLID_877_" x="95.6" y="384.2" transform="matrix(4.529978e-02 0.999 -0.999 4.529978e-02 487.3585 261.9659)" class="st3" width="22" height="3.6"/>
		
			<rect id="XMLID_874_" x="92.8" y="388.7" transform="matrix(4.529919e-02 0.999 -0.999 4.529919e-02 485.152 273.3274)" class="st3" width="13.6" height="3.6"/>
		
			<rect id="XMLID_889_" x="80.4" y="384.9" transform="matrix(4.530850e-02 0.999 -0.999 4.530850e-02 473.4917 277.8543)" class="st3" width="22" height="3.6"/>
		
			<rect id="XMLID_880_" x="77.5" y="389.4" transform="matrix(4.531402e-02 0.999 -0.999 4.531402e-02 471.2846 289.2133)" class="st3" width="13.6" height="3.5"/>
	</g>
	<g id="XMLID_706_" class="st4">
		<g>
			<path class="st5" d="M381.3,314c-36.3,2-72.6,5-108.8,7.8c-17.8,1.4-35.6,2.6-53.4,4.1c-18.4,1.6-37.1,2.2-55.4,4.5     c-0.6,0.1-0.7,1,0,1c18.5-0.5,37-2.7,55.4-3.8c17.8-1.1,35.6-2.6,53.4-3.9c36.3-2.7,72.6-5.1,108.8-8.6     C382,315,382.1,313.9,381.3,314L381.3,314z"/>
		</g>
	</g>
	<g id="XMLID_620_" class="st2">
		<g id="XMLID_621_">
			<path id="XMLID_622_" class="st6" d="M114,283.8H104v10.1h-8.8v-10.1H85.1V275h10.1V265h8.8V275H114V283.8z"/>
		</g>
	</g>
	<g id="XMLID_615_" class="st2">
		<g id="XMLID_616_">
			<path id="XMLID_617_" class="st7" d="M126.9,127.1c0-2.2-1.4-3.6-4.7-3.6c-3.5,0-5.5,2.3-6.8,5.3l-8.7-5     c2.8-6.5,8.9-10.1,15.8-10.1c7.2,0,14.3,4.4,14.3,12.6c0,9.4-10.1,12.3-10.1,16.6h-10.1C116.8,135.5,126.9,132.7,126.9,127.1z      M115.9,153.5c0-3.3,2.7-6,6-6c3.3,0,6,2.7,6,6c0,3.3-2.7,6-6,6C118.6,159.5,115.9,156.7,115.9,153.5z"/>
		</g>
	</g>
	<g id="XMLID_610_" class="st2">
		<g id="XMLID_611_">
			<path id="XMLID_612_" class="st7" d="M392,252.6h27.7v8.8H392V252.6z M392,265.8h27.7v8.8H392V265.8z"/>
		</g>
	</g>
	<g id="XMLID_603_" class="st2">
		<path id="XMLID_604_" class="st6" d="M282,76.3c0-5.9,4.7-10.7,10.9-10.7c6.2,0,10.9,4.6,10.9,10.7c0,5.9-4.7,10.7-10.9,10.7    C286.6,87,282,82.2,282,76.3z M315.6,72.1l4.2,2.4L291.3,106l-4.1-2.5L315.6,72.1z M296.2,76.3c0-1.9-1.4-3.5-3.4-3.5    c-1.9,0-3.3,1.5-3.3,3.5s1.4,3.5,3.3,3.5C294.9,79.7,296.2,78.1,296.2,76.3z M304.4,100.6c0-5.9,4.7-10.7,10.9-10.7    c6.2,0,10.9,4.8,10.9,10.7c0,5.9-4.7,10.7-10.9,10.7C309.1,111.3,304.4,106.5,304.4,100.6z M318.7,100.6c0-1.9-1.4-3.5-3.4-3.5    c-1.9,0-3.3,1.5-3.3,3.5c0,1.9,1.4,3.5,3.3,3.5C317.3,104,318.7,102.4,318.7,100.6z"/>
	</g>
	<path id="XMLID_601_" class="st7" d="M159.6,159v232.1c0.2,5.6,4.8,10,10.3,10h166.6c5.6,0,10.2-4.5,10.3-10.1l0.7-232.1   c0.2-5.8-4.5-10.6-10.3-10.6H170C164.1,148.3,159.4,153.2,159.6,159z"/>
	<polygon id="XMLID_600_" class="st8" points="330.5,203.6 331.6,164.4 175.5,164.4 176.9,203.6  "/>
	<g id="XMLID_594_">
		<g id="XMLID_596_">
			<rect id="XMLID_599_" x="180.2" y="229.9" class="st9" width="37.9" height="37"/>
			<polygon id="XMLID_598_" class="st9" points="181.6,252.3 178.1,265 180.2,266.9 189.5,264.9    "/>
			<polygon id="XMLID_597_" class="st9" points="204.2,232.7 216,228 218.1,229.9 216.5,237    "/>
		</g>
		<rect id="XMLID_595_" x="178.1" y="228" class="st10" width="37.9" height="37"/>
	</g>
	<g id="XMLID_590_">
		<rect id="XMLID_593_" x="235.7" y="229.9" class="st9" width="37.9" height="37"/>
		<polygon id="XMLID_592_" class="st9" points="237.1,252.3 233.6,265 235.7,266.9 245,264.9   "/>
		<polygon id="XMLID_591_" class="st9" points="259.7,232.7 271.5,228 273.6,229.9 272,237   "/>
	</g>
	<rect id="XMLID_589_" x="233.6" y="228" class="st10" width="37.9" height="37"/>
	<g id="XMLID_582_">
		<g id="XMLID_584_">
			<rect id="XMLID_587_" x="291.2" y="229.9" class="st9" width="37.9" height="37"/>
			<polygon id="XMLID_586_" class="st9" points="292.6,252.3 289.1,265 291.2,266.9 300.5,264.9    "/>
			<polygon id="XMLID_585_" class="st9" points="315.2,232.7 327,228 329.1,229.9 327.5,237    "/>
		</g>
		<rect id="XMLID_583_" x="289.1" y="228" class="st10" width="37.9" height="37"/>
	</g>
	<g id="XMLID_569_">
		<g id="XMLID_571_">
			<g>
				<rect id="XMLID_46_" x="180.2" y="285.4" class="st11" width="37.9" height="37"/>
				<polygon id="XMLID_45_" class="st11" points="181.6,307.8 178.1,320.4 180.2,322.4 189.5,320.4     "/>
				<polygon id="XMLID_44_" class="st11" points="204.2,288.2 216,283.5 218.1,285.4 216.5,292.5     "/>
			</g>
		</g>
		<rect id="XMLID_570_" x="178.1" y="283.5" class="st12" width="37.9" height="37"/>
	</g>
	<g id="XMLID_558_">
		<g id="XMLID_560_">
			<g>
				<rect id="XMLID_43_" x="235.7" y="285.4" class="st11" width="37.9" height="37"/>
				<polygon id="XMLID_42_" class="st11" points="237.1,307.8 233.6,320.4 235.7,322.4 245,320.4     "/>
				<polygon id="XMLID_41_" class="st11" points="259.7,288.2 271.5,283.5 273.6,285.4 272,292.5     "/>
			</g>
		</g>
		<rect id="XMLID_559_" x="233.6" y="283.5" class="st12" width="37.9" height="37"/>
	</g>
	<g id="XMLID_549_">
		<g>
			<rect id="XMLID_40_" x="180.2" y="340.9" class="st11" width="37.9" height="37"/>
			<polygon id="XMLID_39_" class="st11" points="181.6,363.2 178.1,375.9 180.2,377.9 189.5,375.9    "/>
			<polygon id="XMLID_38_" class="st11" points="204.2,343.7 216,338.9 218.1,340.9 216.5,348    "/>
		</g>
	</g>
	<rect id="XMLID_547_" x="178.1" y="338.9" class="st12" width="37.9" height="37"/>
	<g id="XMLID_537_">
		<g>
			<rect id="XMLID_37_" x="235.7" y="340.9" class="st11" width="37.9" height="37"/>
			<polygon id="XMLID_36_" class="st11" points="237.1,363.2 233.6,375.9 235.7,377.9 245,375.9    "/>
			<polygon id="XMLID_35_" class="st11" points="259.7,343.7 271.5,338.9 273.6,340.9 272,348    "/>
		</g>
	</g>
	<rect id="XMLID_536_" x="233.6" y="338.9" class="st12" width="37.9" height="37"/>
	<polygon id="XMLID_534_" class="st10" points="327,283.2 322.1,340.9 291.2,340.9 291.2,368.4 289.1,375.9 291.2,377.9    329.1,377.9 329.1,285.2  "/>
	<rect id="XMLID_532_" x="289.1" y="283.2" class="st13" width="37.9" height="92.7"/>
	<g id="XMLID_530_" class="st4">
		<g>
			<path class="st5" d="M172.7,153.7c26.5,0.8,53.1-0.5,79.7-0.7c26.6-0.3,53.1,0.6,79.7-0.3c0.4,0,0.4-0.6,0-0.7     c-26.5-0.9-53.1,0-79.7-0.3c-26.5-0.3-53.2-1.5-79.7-0.7C171,151.1,171,153.6,172.7,153.7L172.7,153.7z"/>
		</g>
	</g>
	<g id="XMLID_529_" class="st4">
		<path class="st5" d="M337.6,397.1c2.6-1.8,4.4-4.7,4.9-7.9"/>
		<g>
			<path class="st5" d="M338.1,397.8c1.7-1.1,3-2.2,4.1-4c0.8-1.3,2-3.5,1.1-5c-0.3-0.4-0.8-0.4-1.2-0.1c-1.1,0.9-1.2,2.8-1.9,3.9     c-0.8,1.4-1.8,2.9-3.1,3.9C336.3,397.1,337.3,398.3,338.1,397.8L338.1,397.8z"/>
		</g>
	</g>
	<g id="XMLID_528_" class="st4">
		<g>
			<path class="st5" d="M339.6,183.6c0,0.2,0,0.5,0,0.7c0,0.3,0.5,0.3,0.5,0c0-0.2,0-0.5,0-0.7C340.2,183.2,339.5,183.2,339.6,183.6     L339.6,183.6z"/>
		</g>
	</g>
	<g id="XMLID_525_" class="st4">
		<path class="st5" d="M163.9,389.9c-0.1,1.8,1.4,3.5,3.2,3.6"/>
		<g>
			<path class="st5" d="M163.7,389.1c-1.6,0.5-0.9,2.6-0.3,3.6c0.8,1.2,2,2,3.4,2.2c1.5,0.2,1.7-2.2,0.4-2.6     c-0.8-0.2-1.4-0.6-1.8-1.3C165.1,390.2,164.8,388.7,163.7,389.1L163.7,389.1z"/>
		</g>
	</g>
	<g id="XMLID_524_" class="st4">
		<path class="st5" d="M164.2,158.7c0.2,0.2,0.5,0.5,0.7,0.7"/>
		<g>
			<path class="st5" d="M163.5,160.4c0,0,0.1,0.1,0.1,0.1c0.6,0.6,1.7,0.7,2.3,0c0.6-0.7,0.6-1.6,0-2.3c0,0-0.1-0.1-0.1-0.1     c-0.6-0.6-1.8-0.6-2.3,0C162.9,158.7,162.8,159.8,163.5,160.4L163.5,160.4z"/>
		</g>
	</g>
	<g id="XMLID_523_" class="st4">
		<g>
			<path class="st5" d="M163.5,167.1c1.6,0,1.6-2.5,0-2.5C161.8,164.6,161.8,167.1,163.5,167.1L163.5,167.1z"/>
		</g>
	</g>
	<polygon id="XMLID_777_" class="st0" points="356.4,364.1 364,383.1 386.6,400.5 380.6,381.5  "/>
	<polygon id="XMLID_776_" class="st7" points="431,381.5 484.2,381.5 460,364.1 416.1,364.1 431,381  "/>
	<polygon id="XMLID_775_" class="st10" points="431,381 416.1,364.1 356.4,364.1 380.6,381.5 431,381.5  "/>
	<polygon id="XMLID_774_" class="st14" points="380.6,381.5 386.6,400.5 431,400.5 431,381.5  "/>
	<polygon id="XMLID_800_" class="st15" points="484.2,381.5 431,381.5 431,400.5 492,400.5  "/>
	<path id="XMLID_768_" class="st16" d="M485.8,440.7l-61.6-32.3c-32.8,2.9-33.6,40.5-33.6,40.5l26.3,19.2l67.1-16.4   C483.8,447.3,484.6,443.7,485.8,440.7z"/>
	<path id="XMLID_767_" class="st17" d="M420.4,439.6l68.8,6.5l-5.2,5.5L416.9,468C416.9,468,390.2,458.6,420.4,439.6z"/>
	<path id="XMLID_871_" class="st18" d="M485.8,440.7c-1.3,3-2,6.6-1.8,11l15.5-3.8L485.8,440.7z"/>
	<path id="XMLID_764_" class="st7" d="M410.2,453.4c1.4-10.4,10.1-13.8,10.1-13.8s-5.9-6.4-4.5-17.7c1.4-11.3,8.3-13.5,8.3-13.5   L71.5,372.6l-6.1,49.8L416.9,468C416.9,468,408.6,466.2,410.2,453.4z"/>
	<g id="XMLID_762_">
		<path id="XMLID_763_" class="st19" d="M420.4,439.6c0,0-5.9-6.4-4.5-17.7c1.4-11.3,8.3-13.5,8.3-13.5L71.5,372.6l-3.2,26.3    L420.4,439.6z"/>
	</g>
	<path id="XMLID_761_" class="st10" d="M12.9,413.2l5.6-45.7c0.1-1.1,1.2-2,2.3-1.8l28.7,3.5c1.1,0.1,2,1.2,1.8,2.3l-5.6,45.7   c-0.1,1.1-1.2,2-2.3,1.8l-28.7-3.5C13.5,415.4,12.7,414.4,12.9,413.2z"/>
	<path id="XMLID_760_" class="st20" d="M38.3,419.7l6.4-52.2c0.1-1.1,1.2-2,2.3-1.8l28.7,3.5c1.1,0.1,2,1.2,1.8,2.3l-6.4,52.2   c-0.1,1.1-1.2,2-2.3,1.8L40.1,422C39,421.9,38.2,420.8,38.3,419.7z"/>
	<g id="XMLID_759_" class="st4">
		<g>
			<path class="st5" d="M396.2,410.5c-81.8-10-164.1-16.2-246.1-24.5c-11.3-1.1-22.5-2.4-33.7-3.6c-11.8-1.3-23.8-3.1-35.7-3.6     c-1,0-1.3,1.6-0.2,1.8c19.6,3.2,40,3.9,59.8,5.8c20.8,2,41.7,4.1,62.5,6.1c41,4,82,8.6,123,12.8c23.5,2.4,46.9,4.8,70.4,6.6     C397,411.9,397,410.6,396.2,410.5L396.2,410.5z"/>
		</g>
	</g>
	<g id="XMLID_758_" class="st4">
		<g>
			<path class="st5" d="M73.1,370.9c-2.6,14.1-5,28.8-5.2,43.2c0,0.7,1.1,0.9,1.2,0.2c3.3-14,4.5-28.8,5.4-43.1     C74.6,370.2,73.2,370.1,73.1,370.9L73.1,370.9z"/>
		</g>
	</g>
	<g id="XMLID_757_" class="st4">
		<g>
			<path class="st5" d="M38.6,371.4c-2.5,5.5-2.4,13-3.2,19c-0.9,7.5-1.8,14.9-1.9,22.4c0,1,1.5,1.2,1.8,0.2     c1.6-6.8,2.5-13.7,3.3-20.7c0.8-6.5,2.9-14.2,1.7-20.7C40.1,370.9,38.9,370.7,38.6,371.4L38.6,371.4z"/>
		</g>
	</g>
	<g id="XMLID_756_" class="st4">
		<g>
			<path class="st5" d="M396.7,459.6c-10-1-20.1-2-30.2-2.9c-9.9-0.9-20.2-2.9-30.2-2.3c-0.7,0-1,1.2-0.2,1.4     c9.4,2.3,19.7,2.3,29.4,3.2c10.4,0.9,20.8,1.9,31.1,2.7C398,461.7,398,459.8,396.7,459.6L396.7,459.6z"/>
		</g>
	</g>
</g>
</svg>